<?xml version="1.0" ?><svg height="37.000008mm" id="svg5" version="1.1" viewBox="0 0 37 37.000008" width="37mm" xmlns="http://www.w3.org/2000/svg" xmlns:svg="http://www.w3.org/2000/svg"><defs id="defs2"/><g id="layer1" transform="translate(-298.69016,-125.61657)"><path d="m 313.55184,136.74888 v 1.01287 h 1.01288 v 1.01287 h -1.01288 v 1.01287 h -1.01288 -1.01287 v 1.01288 h -1.01288 v 3.03861 1.01287 h 1.01288 v 1.01287 h -1.01288 v 1.01288 h 1.01288 v 1.01287 h 1.01287 v 2.02574 h -1.01287 v 1.01286 h 1.01287 v 1.01287 h 2.02576 v 1.01288 h 5.06431 v -1.01288 h 1.01292 1.01282 v -1.01287 h 1.01289 v 1.01287 h 1.01292 v -1.01287 h 1.01282 v -2.02574 h 1.01286 v -3.03861 h -1.01286 v 1.01287 h -1.01282 v -1.01287 h 1.01282 v -2.02574 h 1.01286 v -1.01288 -1.01287 h -1.01286 v -1.01286 h -3.03863 -1.01282 v -1.01288 -1.01287 h -1.01292 v -1.01287 h -2.02571 v -1.01287 z" id="rect155074-6-3-9-2" style="fill:#000000;fill-opacity:0.200557;stroke-width:0.382821;stroke-linecap:round;stroke-linejoin:round;stroke-miterlimit:2"/><path d="m 310.51321,138.77463 v 1.01286 h -1.01286 v 3.03862 1.01287 h 1.01286 v 1.01287 h 1.01288 v -1.01287 h 1.01287 v 1.01287 h 1.01288 1.01288 v -1.01287 h 1.01282 v -4.05149 h -1.01282 v -1.01286 h -1.01288 -1.01288 v 1.01286 h -1.01287 v -1.01286 z m 10.12874,1.01286 v 1.01288 h -1.01292 v 1.01287 h -1.01283 v 1.01287 h -1.01288 v 2.02574 h 6.07726 v -2.02574 h 1.01282 v -1.01287 -1.01287 h -1.01282 v -1.01288 z m -10.12874,1.01288 h 1.01288 v 2.02574 h -1.01288 z m 2.02575,0 h 1.01288 v 2.02574 h -1.01288 z m 2.02576,7.0901 v 1.01287 1.01287 h -3.03863 v 1.01286 h 2.02575 v 1.01288 h 5.06436 v -1.01288 h 1.01283 v -1.01286 h -2.02571 v -1.01287 h -1.01288 v -1.01287 z" id="rect155074-2-6-3" style="fill:#ffffff;fill-opacity:1;stroke-width:0.382821;stroke-linecap:round;stroke-linejoin:round;stroke-miterlimit:2"/><path d="m 312.53896,137.76175 v 1.01288 h 2.02576 v 1.01286 h 1.01282 v 1.01288 1.01287 2.02574 h -1.01282 v 1.01287 h -2.02576 v 1.01287 h 1.01288 v 1.01287 h 1.01288 v 1.01288 h 2.02572 v 1.01287 h 1.01288 v 1.01287 h 2.02571 v 1.01286 h 1.01292 v -1.01286 h 1.01282 v -1.01287 h 1.01289 v -1.01287 -1.01288 -1.01287 -1.01287 h -5.06434 v -1.01287 -1.01287 h 1.01288 v -1.01287 h 1.01283 v -1.01287 h 1.01292 v -1.01288 h -1.01292 v -1.01286 h -1.01283 v -1.01288 z m 0,7.0901 v -1.01287 h -1.01287 v 1.01287 z m 0,-6.07722 h -1.01287 v 1.01286 h 1.01287 z m -2.02575,2.02574 v 2.02574 h 1.01288 v -2.02574 z m 2.02575,0 v 2.02574 h 1.01288 v -2.02574 z m -2.02575,5.06435 v 1.01287 h 1.01288 v -1.01287 z m 1.01288,1.01287 v 2.02575 h 1.01287 v -2.02575 z" id="rect160942-8-6-5" style="fill:#f83800;fill-opacity:1;stroke-width:0.382821;stroke-linecap:round;stroke-linejoin:round;stroke-miterlimit:2"/><path d="m 312.53896,135.73601 v 1.01287 h 1.01288 v 1.01287 h 5.06436 v -1.01287 h -2.02576 v -1.01287 z m 6.07724,2.02574 v 1.01288 h 1.01283 v -1.01288 z m -9.11585,7.0901 v 1.01287 h 2.02574 v 1.01287 h 1.01287 v 2.02575 h -2.02575 v 1.01287 h 4.05151 v -1.01287 -2.02575 h -1.01288 v -1.01287 h -1.01288 v -1.01287 z m 14.18023,0 v 1.01287 h -1.01292 v 3.03862 h -1.01289 v 2.02573 h 1.01289 v -1.01286 h 1.01292 v -2.02574 h 1.01282 v -3.03862 z" id="rect167490-5-6-1" style="fill:#ffa440;fill-opacity:1;stroke-width:0.382821;stroke-linecap:round;stroke-linejoin:round;stroke-miterlimit:2"/></g></svg>