<svg width="800" height="799.7" xmlns="http://www.w3.org/2000/svg">
 <g>
  <title>Layer 1</title>
  <path d="m703.07,755.91c-60.54,34.19 -164.41,43.96 -308.08,43.96s-247.54,-9.77 -308.08,-43.96c-36.34,-20.47 -54.73,-48.37 -54.73,-68.38c0,-11.4 6.06,-17.91 19.56,-17.91l686.49,0c13.51,0 19.56,6.51 19.56,17.91c0.01,20.01 -18.38,47.91 -54.72,68.38zm35.16,-530.34l-686.49,0c-13.5,0 -19.56,-6.98 -19.56,-19.54c0,-74.44 112.01,-205.86 362.81,-205.86c248.48,0 362.81,131.42 362.81,205.86c0,12.56 -6.06,19.54 -19.57,19.54z" fill="#ff8732" id="svg_1"/>
  <path d="m178.42,532.62c-2.1,-3.26 -2.33,-5.36 -2.33,-6.28c0,-2.56 1.4,-4.42 4.19,-6.98c6.52,-6.05 22.59,-21.17 31.44,-34.89c6.74,-10.47 9.54,-20 9.54,-27.9c0,-20.24 -18.39,-36.06 -38.42,-36.06c-12.81,0 -24.92,7.21 -33.06,20.47c-10.95,17.67 -24,38.14 -32.37,46.29c-2.1,2.1 -3.26,2.56 -4.88,2.56c-2.8,0 -3.96,-1.86 -3.96,-4.88l0,-23.27c0,-22.79 -13.51,-41.17 -37.97,-41.17c-24.68,0 -37.96,18.37 -37.96,41.17l0,143.29c0,22.79 13.27,41.18 37.96,41.18c24.46,0 37.97,-18.37 37.97,-41.18l0,-33.02c0,-2.8 1.16,-4.88 3.96,-4.88c3.72,0 4.66,3.72 5.58,5.58c5.36,12.79 20.96,40 35.4,56.05c9.79,10.7 21.89,17.45 34.7,17.45c21.66,0 39.83,-18.85 39.83,-39.08c0,-12.56 -5.37,-21.87 -15.61,-33.03c-13.05,-14.21 -28.42,-32.82 -34.01,-41.42zm106.19,-112.13c-26.08,0 -40.29,19.54 -40.29,43.96l0,137.71c0,24.43 14.21,43.97 40.29,43.97c26.07,0 40.28,-19.54 40.28,-43.97l0,-137.71c0,-24.41 -14.19,-43.96 -40.28,-43.96zm223.32,0c-23.99,0 -37.03,17.91 -37.03,40.48l0,50.24c0,4.18 -1.4,6.05 -3.96,6.05c-1.86,0 -3.26,-1.16 -4.89,-4.41l-32.36,-62.81c-12.34,-23.97 -25.15,-29.55 -39.82,-29.55c-24.46,0 -37.96,18.38 -37.96,41.41l0,143.76c0,22.57 13.04,40.48 37.02,40.48c23.99,0 37.03,-17.91 37.03,-40.48l0,-50.24c0,-4.18 1.39,-6.05 3.96,-6.05c1.86,0 3.26,1.16 4.88,4.42l32.37,62.8c12.34,23.97 25.61,29.55 39.82,29.55c24.45,0 37.96,-18.37 37.96,-41.4l0,-143.77c0,-22.57 -13.03,-40.48 -37.02,-40.48zm190.72,89.56l-11.41,0c-20.5,0 -36.33,9.54 -36.33,30.47c0,19.07 17.23,28.14 30.04,28.14c6.29,0 10.71,1.86 10.71,6.74c0,6.06 -7.45,10 -15.37,10c-26.31,0 -44.25,-17.91 -44.25,-51.17c0,-36.99 24.46,-50.48 43.31,-50.48c23.06,0 26.78,11.63 42.85,11.63c18.63,0 31.2,-15.11 31.2,-30.46c0,-11.4 -5.12,-20.24 -13.27,-26.29c-14.2,-10.47 -35.62,-18.15 -65.9,-18.15c-54.26,0 -107.12,34.19 -107.12,113.75c0,76.06 52.85,111.65 105.02,111.65c54.72,0 89.42,-33.73 89.42,-83.04c0.01,-31.16 -19.54,-52.79 -58.9,-52.79z" fill="#d62300" id="svg_2"/>
  <text fill="#d62300" stroke-width="0" x="144.49281" y="273.5292" id="svg_4" font-size="24" font-family="Noto Sans JP" text-anchor="start" xml:space="preserve" transform="matrix(13.337 0 0 7.08274 -1890.33 -1562.82)" filter="url(#svg_4_blur)">咸</text>
  <text fill="#d62300" stroke-width="0" x="325.59737" y="283.36394" id="svg_5" font-size="24" font-family="'Noto Sans Display'" text-anchor="start" xml:space="preserve" transform="matrix(15.8182 0 0 6.88867 -4772.89 -1577.87)">鱼</text>
 </g>
 <defs>
  <filter id="svg_4_blur">
   <feGaussianBlur in="SourceGraphic" stdDeviation="0"/>
  </filter>
 </defs>
</svg>